<?xml version="1.0" encoding="UTF-8"?>
<svg xmlns="http://www.w3.org/2000/svg" id="Layer_1" data-name="Layer 1" viewBox="0 0 70 51.39">
  <defs>
    <style>.cls-1{fill:#bbc4ca}.cls-2{fill:#130c0e}.cls-3{fill:#fff}.cls-4{fill:#0077c0}</style>
  </defs>
  <path class="cls-1" d="M70 31.88v-9.73c-.07 0-5.54-1.94-8.73-2.66-3.76-.84-4.84 2.05-5 2.56v-3.68S46 16.39 38.61 16.5a3.65 3.65 0 0 0-3.77 3.14v-3.23s-7.07.21-9.69.45a4.67 4.67 0 0 0-4.37 3.5v-3.11a108.17 108.17 0 0 0-17.65 3.8A4.49 4.49 0 0 0 0 25v21.4l7-2.24v-3.72l6.39-1.51v3.68l3.14-.61a27.58 27.58 0 0 0-7.47 10c4.24-3.64 8.46-7.17 14.72-8.86l-1.42 3.3c5-2.73 11.68-2.82 17-1.11l-.4.89a20 20 0 0 0-10.81-1c3.68 1.26 6.78 2.24 9.87 4.27-.21 5.75 4.5 11.24 10.58 11.19 9.77-.08 14.27-11.53 8.81-18.6a6.78 6.78 0 0 0 2.27 1c3.45 1 10.32 3 10.32 3V37l-5.25-1.57-.57 2.57c-.34-.12-.84-.14-.85-.39V27.29l.42 2.71Zm-27.88-9.26h.23l.5 2.23 6.06.54v1l-6.79-.57Z" transform="translate(0 -9.3)"></path>
  <path class="cls-2" d="m63.71 25.73.58 3.74 5 1.55v-8.43s-5-1.77-8.27-2.5c-1.11-.31-4.38-.5-4.45 3.62V38a4.57 4.57 0 0 0 3.75 4.74c3.73 1 9 2.58 9 2.58v-7.85l-4.12-1.24-.57 2.55c-.46-.14-.83-.24-1.3-.36s-.62-.41-.64-.68V25.45ZM49.52 18v22.66l1.14.1c.34 0 3.07.5 3.4.56l1.55.4V18.89s-3.8-.66-6.09-.89ZM42.85 22l.5 2.24 5 .45v-6.9s-7.3-.69-9.35-.69a3.36 3.36 0 0 0-3.65 3.56v14.83a3.88 3.88 0 0 0 4.08 4.21s5.37.26 7.44.57l1.5.28V27l-6.87-.55V22Zm-.61 9v4.23c-.12 0-.68 0-.74-.34v-3.96ZM25.19 17.48a4.16 4.16 0 0 0-4 4.49v18.62l1.47-.28c.34-.05 3.1-.31 3.44-.31h1.21v-8.39l.73-.05v8.36l1.39-.16c.29 0 3-.13 3.45-.13l1.31.07V17.05s-6.28.18-9 .43Zm2.12 9.07v-4.32c0-.27.64-.24.73-.25v4.53ZM20.13 18s-5.7.86-7.39 1.24a3.94 3.94 0 0 0-1.11.43v-.2s-4.74 1-8.31 2.2A3.91 3.91 0 0 0 .61 25v20.44l5.75-1.82v-17c0-.31.27-.56.81-.72h.1v13.9l6.08-1.44V25a.74.74 0 0 1 .65-.7v17.49s4.73-.95 5-1l1.14-.1Z" transform="translate(0 -9.3)"></path>
  <path class="cls-3" d="m65.75 37.16-.57 2.54c-.92-.27-1.37-.4-2-.57A1.42 1.42 0 0 1 62 38V25c.21-.73 1.17-.11 2.36.13l.58 3.74L68.61 30v-6.89s-4.56-1.55-7.7-2.31c-.34-.08-3.48-.82-3.55 2.91V38a3.86 3.86 0 0 0 3.2 4c3.07.8 8.06 2.3 8.06 2.3V38ZM54.87 19.51l-4.62-.72V40s3.74.57 4 .62l.66.17ZM41.69 21.23l1.76.12.55 2.25 3.69.32v-5.46S40 17.79 39 17.83a2.66 2.66 0 0 0-2.91 2.83v14.83A3.14 3.14 0 0 0 39.46 39s5.08.25 7.31.54l.87.16v-12l-5.59-.45v3l.93.07V36c-.7 0-2.16.12-2.22-1.1V21.77c.05-.24.24-.54.93-.54ZM25.25 18.15a3.49 3.49 0 0 0-3.38 3.77v17.85h.07l.73-.13c.61-.07 3.16-.32 3.39-.33h.56V31l2.09-.14v8.3l.63-.06c.22 0 3-.13 3.52-.13h.63V17.75s-5.49.13-8.24.4Zm3.47 9-2.09.11V22.2c.06-.53.42-.83 1.08-.88l1-.06ZM19.4 18.82s-5.55.85-6.5 1.1a3.62 3.62 0 0 0-2 1.24v-.81s-3.86.85-7.4 2A3.18 3.18 0 0 0 1.34 25v19.4L5.63 43V26.57c0-1.39 2-1.56 2.37-1.63V38.8l4.62-1.09V24.94c.16-1.51 1.84-1.41 2.11-1.5v17.41l2.27-.39 2.4-.41V40Z" transform="translate(0 -9.3)"></path>
  <path class="cls-4" d="m68.09 38.41-2-.59-.57 2.54c-1.27-.38-1.76-.52-2.54-.72a2 2 0 0 1-1.58-1.86V25.17c.15-1 .79-1.15 1.57-.94 0 0 .84.23 1.82.53l.58 3.74 2.68.82v-5.84C66.61 23 63.7 22 60.79 21.31c-1.86-.45-2.91.5-2.91 2.4V38a3.34 3.34 0 0 0 2.82 3.52c3.8 1 7.4 2.1 7.4 2.1ZM50.78 39.51c.22 0 3.35.54 3.57.59V20c-1.07-.2-2-.36-3.57-.56ZM42.57 29.75l.94.07v6.73l-1.66-.12a1.62 1.62 0 0 1-1.62-1.65v-13a1.36 1.36 0 0 1 1.62-1.08s.95.06 2 .15l.49 2.24 2.75.25v-4.41c-5-.48-7.77-.56-7.77-.56a2.73 2.73 0 0 0-2.07.55 2.41 2.41 0 0 0-.65 1.74v14.83a2.64 2.64 0 0 0 2.87 3c0-.07 6.68.4 7.64.58V28.15c-1.6-.16-2.52-.25-4.55-.37ZM22.45 22v17.1c.22 0 3.38-.35 3.6-.36v-8.29c1.08-.09 2.16-.16 3.23-.22v8.28c.23 0 3.42-.15 3.65-.13v-20c-2.15 0-5.1.14-7.63.38A2.9 2.9 0 0 0 22.45 22m3.61.2a1.53 1.53 0 0 1 1.62-1.42l1.61-.1v7.06c-1.07.05-2.15.1-3.23.18ZM13 20.43a3.74 3.74 0 0 0-2.6 3.07V21s-3.15.69-6.71 1.84A2.66 2.66 0 0 0 1.87 25v18.61c.21-.08 3-1 3.23-1v-16a2.08 2.08 0 0 1 1.71-1.92c.43-.13 1.72-.33 1.72-.33v13.77l3.57-.84V24.86a2 2 0 0 1 1.59-1.78l1.57-.25v17.34c.22-.05 3.39-.59 3.61-.61V19.43s-4.19.63-5.87 1Z" transform="translate(0 -9.3)"></path>
  <path class="cls-2" d="M50.83 38.13C64.75 43.63 59 59.83 48.76 60a10.18 10.18 0 0 1-9.95-10.67c-2.51-2-5.67-3-8.73-3.85A19.71 19.71 0 0 1 39.26 47l.94-2c-4.67-1.72-12.08-2-16.63.18l1.25-2.91A32.37 32.37 0 0 0 10.63 50c2.79-5.34 9.11-10.76 14.88-12.56l-.43 1.26a40.25 40.25 0 0 1 11.53-2.31 38.21 38.21 0 0 1 10.47.64c-.52-.68-1.36-1.88-1.36-1.88l2.68.68.69-1.1.7-1.14.4 2.76 2.56.84Z" transform="translate(0 -9.3)"></path>
  <path d="M52 45.55a8 8 0 0 0 2.17-2.43c-1.56-1.52-4.52-3.4-12.07-3.91a24 24 0 0 1 7.88 2.93 12.63 12.63 0 0 0-2.24-.67c-.41.05-1 .11-1.41.2A13.76 13.76 0 0 1 52 45.55m-.54.38c-5-5.48-14.93-6.56-21.82-4.69 4.78-.13 14.26.13 17.65 4.15-1.1-.6-3.31-1.62-4.62-1.55a11.2 11.2 0 0 0-1.24 1.68c3.32 1.22 6.73 2.46 10 .41m1.91 2.84a16.64 16.64 0 0 0-1.54-2.27c-3.58 2.29-7.17 1-10.8-.37a8.85 8.85 0 0 0-.63 6 24.81 24.81 0 0 0 13-3.33m.91 2.29c-.17-.55-.37-1.09-.59-1.62a25.6 25.6 0 0 1-13 3.41 8.72 8.72 0 0 0 8.13 5.8c1.18-2.92 2.5-6.12 5.51-7.59m.22.73c-2.76 1.29-3.88 4.19-5 6.84a9 9 0 0 0 4.89-2 10.89 10.89 0 0 0 .08-4.82m.59-.32a14.94 14.94 0 0 1 .32 4.16 9.56 9.56 0 0 0 2-4.62 9.72 9.72 0 0 0-2.33.46m-.83-2.39a15.39 15.39 0 0 1 .65 1.71 10.39 10.39 0 0 1 2.59-.48 9.35 9.35 0 0 0-.57-3.44 16.17 16.17 0 0 1-2.67 2.21m-1.84-3a19.26 19.26 0 0 1 1.51 2.29 13 13 0 0 0 2.66-2.31 10.11 10.11 0 0 0-2-2.55 9 9 0 0 1-2.19 2.57" transform="translate(0 -9.3)" style="fill-rule:evenodd;fill:#bbc4ca"></path>
  <path class="cls-1" d="m47.3 29.58 1.55-.54 1.17 1.33-.13-1.74 1.5-.66-1.64-.53-.25-1.74-.87 1.41-1.65-.42 1.09 1.41-.77 1.48z"></path>
  <path d="M50.51 57.88a9.26 9.26 0 0 0 2.83-1.5 8.93 8.93 0 0 0 .35-3.16l-1 1.75.33-1.7a11.51 11.51 0 0 0-2.47 4.61m-8.61-4A20.94 20.94 0 0 0 51 51.46c-1.64 1.66-3.38 2.56-6 3.94 2.91-.49 4.34-1.63 6.25-3a34.69 34.69 0 0 0-3.36 5.21s-3.39.43-6-3.65m-.46-6.46a15.75 15.75 0 0 0 6.68 1.27l-3.9 1.16a26.69 26.69 0 0 0 6.18-.5 22.27 22.27 0 0 1-9.3 1.95 5.53 5.53 0 0 1 .34-3.88" transform="translate(0 -9.3)" style="fill-rule:evenodd;fill:#0077c0"></path>
  <path class="cls-3" d="m39.04 30.83 1.08-.53.9.8-.18-1.19 1.04-.6-1.19-.2-.25-1.17-.56 1.06-1.19-.12.84.86-.49 1.09zM26.94 33.21l.71-.35.59.53-.12-.78.68-.4-.77-.13-.17-.77-.37.69-.78-.07.55.56-.32.72z"></path>
  <path d="M56 45.87c-.24.26-.47.49-.71.71a11.85 11.85 0 0 0-.96-1.58c.18-.23.36-.46.53-.71A7.37 7.37 0 0 1 56 45.87m1 3.58c-.29 0-.55.08-.81.14a10.63 10.63 0 0 0-.25-1.25c.28-.24.55-.48.83-.74a7.44 7.44 0 0 1 .23 1.85m-1 3.84v-.15a10.43 10.43 0 0 0 .2-1.76l.47-.1a10.52 10.52 0 0 1-.66 2m-6.7-12.22-.41-.2A13.6 13.6 0 0 1 53.37 43a4.26 4.26 0 0 1-.41.54 10.53 10.53 0 0 0-3.65-2.47" transform="translate(0 -9.3)" style="fill-rule:evenodd;fill:#fff"></path>
  <path class="cls-3" d="M49.6 10.55c-.38-.07-1.76-.3-1.84-.3a.79.79 0 0 0-.83.81V15a1 1 0 0 0 .93 1.06l1.93.24a.75.75 0 0 0 .84-.78V11.6c0-.18-.06-.88-1.03-1.05Zm-.36 4.5c0 .15-.08.23-.19.21l-.53-.06c-.12 0-.19 0-.19-.27v-3.3c0-.18.09-.23.21-.22l.46.08c.12 0 .24 0 .24.2ZM40.53 9.47c-.76-.07-2.59-.13-2.59-.13v6h1.43v-4.9h.57c.29 0 .38.14.38.28v4.68l1.41.09v-5c0-.35-.23-.94-1.2-1.02ZM34.47 9.3c-.7 0-1.11.32-1.11 1.06v4.92h1.42v-2.35h1v2.36h1.44v-6H35.7Zm1.27 2.7h-1v-1.4c0-.12.09-.27.4-.27h.55ZM32.67 13.41h-1.14l-.28 1h-.38v-5l-1.42.08v5.93l1.61-.06h1.61ZM28.73 13.06a.55.55 0 0 0-.35-.55.66.66 0 0 0 .34-.55v-1.52a.85.85 0 0 0-1-.83c-.75 0-2.8.27-2.8.27v5.86l1.42-.12v-2.4l.67-.07c.21 0 .26.11.26.16v2.24l1.42-.1ZM27 12.25l-.63.06v-1.55l.6-.06c.29 0 .32.17.32.25v1a.32.32 0 0 1-.29.3ZM23.37 10.1c-.17 0-1.46.16-1.84.23a1.13 1.13 0 0 0-1 1.09v4a.67.67 0 0 0 .79.72c.18 0 1.48-.2 2-.24a1 1 0 0 0 1-1v-4a.77.77 0 0 0-.95-.8Zm-.71 4.9-.53.06c-.14 0-.2-.14-.2-.21v-3.34a.2.2 0 0 1 .15-.21l.54-.09a.19.19 0 0 1 .21.18v3.36a.22.22 0 0 1-.17.25ZM45.19 9.85c-.34 0-2.7-.27-2.7-.27v6l2.69.22c.51.05 1.09-.13 1.09-.83V11c0-.86-.62-1.06-1.08-1.15Zm-.34 4.74c0 .12-.12.16-.28.14l-.67-.06v-3.86l.6.06c.23 0 .32.11.35.22Z" transform="translate(0 -9.3)"></path>
</svg>
