<?xml version="1.0" encoding="UTF-8"?>
<svg xmlns="http://www.w3.org/2000/svg" xmlns:xlink="http://www.w3.org/1999/xlink" version="1.0" id="Layer_1" x="0px" y="0px" viewBox="0 0 1000 771.59" style="enable-background:new 0 0 1000 771.59;" xml:space="preserve">
<style type="text/css">
	.st0{fill:#FFFFFF;}
	.st1{fill:#9EA1A2;}
	.st2{fill:#6F7271;}
	.st3{fill:#373A36;}
	.st4{fill:#C10230;}
</style>
<g>
	<path class="st0" d="M842.6,236.81c-28.44-64.77-74.51-120.05-133.32-159.95C647.2,34.76,574.7,12.5,499.59,12.5   S351.98,34.76,289.91,76.86c-58.81,39.89-104.87,95.18-133.32,159.95C29.4,270.2,2.63,311.85,2.63,340.99l0.14,158.64   c1.77,26.6,29.73,76.34,196.8,111.06c33.72,45.07,77.77,82.57,127.5,108.5c52.91,27.59,112.57,42.18,172.53,42.18   c59.96,0,119.61-14.58,172.52-42.18c49.72-25.92,93.78-63.43,127.5-108.5c167.08-34.72,195.03-84.46,196.81-111.31l0.12-158.4   C996.55,311.85,969.78,270.2,842.6,236.81z"></path>
	<g>
		<path class="st1" d="M833.78,247.09C778.96,116.56,649.81,24.65,499.59,24.65S220.23,116.56,165.4,247.09    C72.62,270.7,14.78,304.03,14.78,340.98l0.11,157.84c0-33.21,46.64-60.97,123.49-83.9c14.33,186.74,170.86,334.3,361.21,334.3    s346.88-147.56,361.21-334.3c76.85,22.93,123.49,50.69,123.49,83.9l0.11-157.84C984.4,304.03,926.57,270.7,833.78,247.09z"></path>
		<path class="st2" d="M983.97,494.31c-0.07-0.56-0.13-1.13-0.23-1.69c-0.11-0.64-0.27-1.27-0.42-1.91    c-0.09-0.38-0.15-0.76-0.25-1.13c-0.21-0.77-0.46-1.54-0.72-2.31c-0.08-0.23-0.14-0.46-0.22-0.69c-0.33-0.91-0.69-1.81-1.09-2.7    c-0.04-0.08-0.07-0.17-0.1-0.25c-4.99-11.08-15.43-21.49-30.59-31.27c-24.08,15.97-60.68,30.99-105.09,43.07c0,0,0,0.01,0,0.01    c0,0,0,0,0,0c-5.95,18.9-13.4,37.13-22.22,54.55c0,0,0,0.01-0.01,0.01c0,0,0,0,0,0c-8.82,17.42-19,34.03-30.41,49.7    c0,0,0,0.01-0.01,0.01c114.36-23.23,188.94-59.72,191.68-100.9c0-1.04-0.05-2.08-0.14-3.12    C984.11,495.23,984.03,494.77,983.97,494.31z"></path>
		<path class="st2" d="M15.22,494.31c0.07-0.56,0.13-1.13,0.23-1.69c0.11-0.64,0.27-1.27,0.42-1.91c0.09-0.38,0.15-0.76,0.25-1.13    c0.21-0.77,0.46-1.54,0.72-2.31c0.08-0.23,0.14-0.46,0.22-0.69c0.33-0.91,0.69-1.81,1.09-2.7c0.04-0.08,0.07-0.17,0.1-0.25    c4.99-11.08,15.43-21.49,30.59-31.27c24.08,15.97,60.68,30.99,105.09,43.07c0,0,0,0.01,0,0.01c0,0,0,0,0,0    c5.95,18.9,13.4,37.13,22.22,54.55c0,0,0,0.01,0.01,0.01c0,0,0,0,0,0c8.82,17.42,19,34.03,30.41,49.7c0,0,0,0.01,0.01,0.01    C92.22,576.49,17.64,540,14.89,498.82c0-1.04,0.05-2.08,0.14-3.12C15.07,495.23,15.16,494.77,15.22,494.31z"></path>
		<circle class="st3" cx="499.59" cy="386.93" r="343.41"></circle>
		<g>
			<path d="M938.3,303.19c-22.81-14.42-57.31-28.04-99.76-39.39c-6.6-1.77-13.39-3.47-20.3-5.11     C767.42,132.56,643.91,43.52,499.59,43.52c-144.32,0-267.83,89.04-318.64,215.17c-6.92,1.65-13.7,3.35-20.3,5.11     c-42.46,11.35-76.95,24.97-99.76,39.39c-14.2,8.97-31.12,22.82-31.12,37.79v108.09c25.67-20.74,67.1-38.85,123.15-53.84     c1.11-0.3,2.24-0.58,3.36-0.88c3.95,186.23,156.14,335.99,343.32,335.99c187.18,0,339.36-149.76,343.32-335.99     c1.12,0.29,2.25,0.58,3.36,0.88c56.05,14.99,97.48,33.1,123.15,53.84V340.98C969.42,326.01,952.5,312.17,938.3,303.19z      M717.34,171.07c1.23-2.6,4.69-3.22,6.69-1.15c22.83,23.6,41.96,50.8,56.47,80.65c-2.87-0.56-5.77-1.11-8.68-1.65     c-18.66-21.06-39.61-40.06-62.51-56.52C711.41,185.02,714.1,177.9,717.34,171.07z M637.65,106.86     c21.11,10.42,40.87,23.15,58.95,37.87c3.88,3.16,5,8.58,2.74,13.03c-3.55,6.99-6.6,14.27-9.1,21.8     c-16.52-10.41-33.91-19.58-52.02-27.36c-2.42-13.01-5.33-25.89-8.71-38.62C628.23,108.78,633.19,104.66,637.65,106.86z      M544.99,78.03c15.7,2.28,31.02,5.73,45.86,10.26c5.59,1.7,9.92,6.09,11.64,11.67c4.34,14,8.1,28.26,11.23,42.75     c-18.06-6.3-36.73-11.26-55.91-14.76c-2.42-8.01-5.41-15.9-9.01-23.62c-2.85-6.11-6.03-12.01-9.5-17.67     C536.8,82.55,540.23,77.33,544.99,78.03z M811.81,386.93c0,55.45-14.46,107.52-39.81,152.66c-1.51,2.68-5.61,1.12-4.95-1.88     l0.04-0.18c12.1-54.14,9.45-109.25-7.04-160.72c-1.46-4.55-2.98-9.07-4.65-13.56c-0.76-2.04-2.57-3.5-4.72-3.85l-14.04-2.29     c-3.45-0.56-6.2,2.86-4.89,6.11c1.31,3.22,2.55,6.46,3.74,9.72c18.49,50.76,22.18,105.8,10.12,159.8     c-0.7,3.13-1.45,6.24-2.25,9.33c-12.72,49.22-47.72,89.38-94.27,109.81c-39.2,17.21-82.46,26.88-127.89,27.16     c-19.64,0.12-38.86-1.56-57.52-4.88c-7.69-1.36-10.34-11.1-4.39-16.16c10.85-9.22,21.38-18.9,31.56-29.07     c7.27-7.27,14.29-14.72,21.08-22.33c2.89-3.24,4.39-7.48,4.25-11.82l-0.59-18.68c-0.09-2.83-3.63-4-5.42-1.81     c-23.81,29.21-50.77,55.75-80.36,79.11c-7.46,5.89-17.5,7.28-26.35,3.8c-42.14-16.55-79.92-41.87-111.14-73.68     c-6.29-6.41-9.12-15.52-7.19-24.29c8.36-38.01,23.59-74.33,44.99-106.99c1.85-2.82,0.52-6.61-2.7-7.61     c-3.97-1.23-7.8-2.54-11.46-3.93c-2.13-0.81-4.55-0.07-5.78,1.85c-17.85,27.76-31.57,57.94-40.79,89.5     c-2.2,7.53-12.22,9.12-16.53,2.56c-28.87-43.95-47.27-95.4-51.68-150.71c-0.68-8.55-1.06-17.19-1.06-25.91     c0-0.97,0-1.94,0.01-2.9c0.36-40.32,15.39-78.97,41.9-108.77c4.44-4.99,9.17-9.76,14.24-14.22     c46.11-40.53,102.79-69.3,165.32-81.59c1.84-7.54,3.95-15.35,6.36-23.54c-61.51,10.25-118.03,35.47-165.66,71.77     c-4.45,3.39-10.1-2.34-6.6-6.7c57.86-72.3,147.19-118.31,247.23-117.26c0.02,0.01,0.04,0.02,0.06,0.03     c10.41,11.4,19.15,24.43,25.86,38.83c1.64,3.53,3.1,7.11,4.46,10.71c-14.2-1.63-28.63-2.5-43.26-2.5     c-6.85,0-13.66,0.2-20.42,0.57c2.01,7,3.82,14.25,5.46,21.79c4.96-0.21,9.95-0.35,14.96-0.35c16.97,0,33.65,1.22,49.99,3.54     c1.35,6.46,2.25,12.98,2.75,19.52c0.14,1.85,1.43,3.38,3.21,3.86c7.08,1.9,13.5,4.31,19.24,7.2c-0.02-8.87-0.72-17.74-2.1-26.52     c19.06,4.01,37.55,9.55,55.36,16.5c2.92,17.79,4.92,35.89,5.96,54.24c0.16,2.9,2.3,5.29,5.16,5.76l13.2,2.15     c2.11,0.34,4.02-1.35,3.92-3.48c-0.74-16.25-2.2-32.37-4.37-48.33c14.63,6.99,28.69,14.96,42.13,23.81     c-1.72,9.58-2.52,19.2-2.48,28.76c0.01,2.2,1.1,4.16,2.78,5.37c0.8,0.57,1.72,0.99,2.75,1.16l13.38,2.18     c1.1,0.18,2.1-0.3,2.7-1.11c0.37-0.51,0.59-1.14,0.56-1.83c-0.31-6.7-0.14-13.44,0.54-20.18c10.77,8.22,21.05,17.05,30.8,26.42     c29.9,28.74,54.78,62.66,73.19,100.3c2.01,14.29,3.07,28.87,3.07,43.71C811.81,386.88,811.81,386.9,811.81,386.93z"></path>
		</g>
		<g>
			<path class="st1" d="M571.06,367.22l0.59-49.41c-0.06-23.19-24.16-27.08-41.96-26.78c11.94-3.95,26.3-10.69,36.71-21.94     c10.91-10.07,18.68-24.26,17.34-44.17c-2.27-33.51-44.17-50.2-113.63-43.46c-1.14,0.11-2.27,0.23-3.4,0.34     c-3.26-24.76-8.33-48.75-16.06-70.89l-3.44,3.42c-9.23,28.64-14.75,51.48-17.96,72.67c-41.46,7.14-70.5,16.65-70.5,16.65     l-3.42,3.42c0,0,33.52-3.04,71.73-2.5c-4.25,43.43,0.08,84.69-0.06,162.63c-61.72-1.74-115.88,8.52-129.12,25     c-4.35,3.59-6.67,7.52-6.52,11.75c0.67,18.89,56.79,36.24,135.66,42.87l3.36,107.12l3.43-3.43l5.54-72.64     c0.02-1.19,0.16-2.2,0.39-3.05c1.66,0.22,3.22,2.34,3.22,6.03l2.44,95.67l3.44-3.42l5.88-77.86c-0.02-1.74,0.18-3.17,0.5-4.31     c1.67,0.29,3.21,2.74,3.08,7.12l2.72,99.74l3.42-3.42l4.7-145.15c9.07,0.29,18.32,0.44,27.73,0.44c9.97,0,19.79-0.17,29.41-0.49     l4.76,151.33l3.42-3.42l4.07-79.21c0.01-1.59,0.19-2.91,0.48-3.98c1.56,0.36,2.99,2.67,2.98,6.76l4.09,111.08l3.42-3.42     l4.15-95.97c0.05-1.37,0.25-2.53,0.56-3.48c1.97-0.02,3.97,2.33,4.06,6.92l3.41,127.19l3.42-3.43l4.99-212.98     c67.41-5.88,118.58-19.48,131.26-35.1c4.21-3.54,6.46-7.2,6.46-10.93C706.86,379.78,644.51,363.76,571.06,367.22 M426.33,424.3     c-54.02-5.21-90.53-16.18-90.53-30.03c0-1.01,0.29-1.98,0.86-2.92c12.66-8.91,51.47-14.52,90.34-20.35     c-0.05,15.23-0.28,31.84-0.78,50.11L426.33,424.3z M536.41,238.3c2.06,15.29-2.32,26.83-10.21,35.54     c-14.1,12.78-36.21,18.61-54.18,21.25c0.32-28.85-0.11-58.8-2.61-88.18C504.09,210.61,533.86,219.37,536.41,238.3 M526.29,427.22     c-8.46,0.25-17.13,0.38-25.98,0.38c-10.42,0-20.59-0.18-30.44-0.52l0.4-12.32c-0.93-31.2,1.01-70.31,1.65-112.1     c25.3,2.93,55.82,10.14,55.29,27.94L526.29,427.22z M660.65,403.15c-12.58,9.93-46.06,17.59-90.27,21.53l0.63-53.13     c50.59,6.6,91.64,13.99,91.64,26.13C662.66,399.56,661.97,401.39,660.65,403.15"></path>
			<path class="st4" d="M707.81,400.52c-0.95-20.74-63.3-36.76-136.74-33.3l0.59-49.41c-0.08-30.57-41.94-27.6-56.06-25.72     c16.47-2.98,71.55-16.73,68.15-67.17c-2.27-33.51-44.17-50.2-113.63-43.46c-1.14,0.11-2.27,0.23-3.4,0.34     c-3.26-24.76-8.33-48.75-16.06-70.89c-9.66,29.95-15.26,53.56-18.4,75.58c-43.05,7.19-73.49,17.16-73.49,17.16     s33.52-3.04,71.73-2.5c-4.32,44.08,0.21,85.92-0.06,166.15c-73.01-2.57-136.39,11.64-135.63,33.22     c0.65,18.89,56.78,36.25,135.66,42.88l3.36,107.1l5.54-72.64c0.17-9.01,7.03-8.18,7.03-0.44l2.45,95.67l5.88-77.86     c-0.09-10.51,7.26-10.01,7.01-0.61l2.71,99.74l4.81-148.66c10.12,0.36,20.48,0.55,31.04,0.55c9.97,0,19.78-0.17,29.4-0.49     l4.77,151.31l4.07-79.2c0.06-10.1,6.89-9.57,6.87-0.63l4.09,111.07l4.15-95.97c0.32-9.43,7.85-9.01,8.02,0l3.42,127.19     l5.06-215.97v-0.13C649.92,436.82,707.81,419.44,707.81,400.52 M539.82,234.88c5.65,41.91-37.1,55.69-67.81,60.21     c0.33-30.09-0.14-61.39-2.94-91.98C505.34,206.58,537.19,215.27,539.82,234.88 M335.81,394.27c0-12.8,47.29-19.57,94.63-26.68     c-0.05,15.23-0.28,31.83-0.77,50.09l0.22,6.96C373.91,419.57,335.81,408.42,335.81,394.27 M469.87,427.08l0.4-12.32     c-0.96-32.14,1.13-72.68,1.7-115.88c25.86,2.66,59.2,9.7,58.65,28.3l-0.94,99.93c-9.52,0.32-19.34,0.48-29.37,0.48     C489.89,427.6,479.72,427.43,469.87,427.08 M570.38,424.68l0.68-57c52.12,6.72,95.01,14.19,95.01,26.58     C666.08,408.47,627.03,419.64,570.38,424.68"></path>
		</g>
		<path class="st0" d="M137.16,294.29c-6.49,2.17-12.97,4.4-19.43,6.7c-4.14,1.47-7.51,6.17-7.51,10.41c0,22.29,0,44.57,0,66.86    c0,4.24,3.38,6.49,7.51,5.02c6.46-2.29,12.94-4.52,19.43-6.7c4.15-1.39,7.56-5.97,7.56-10.21c0-22.29,0-44.57,0-66.86    C144.72,295.26,141.31,292.9,137.16,294.29z M132.18,365.46c-3.17,1.08-6.34,2.17-9.51,3.28c0-18.9,0-37.8,0-56.7    c3.17-1.11,6.34-2.2,9.51-3.28C132.18,327.66,132.18,346.56,132.18,365.46z M332.55,247.55c-6.7,0.99-13.4,2.04-20.09,3.15    c-4.28,0.71-7.78,4.79-7.78,9.03c0,22.29,0,44.57,0,66.86c0,4.24,3.5,7.1,7.78,6.39c6.69-1.11,13.39-2.16,20.09-3.15    c4.29-0.63,7.8-4.6,7.81-8.84c0-22.29,0-44.57,0-66.86C340.36,249.9,336.84,246.92,332.55,247.55z M327.42,317.81    c-3.28,0.5-6.56,1.01-9.83,1.54c0-18.9,0-37.8,0-56.7c3.28-0.53,6.55-1.04,9.83-1.54C327.42,280.01,327.42,298.91,327.42,317.81z     M181.7,280.39c4.22-1.22,8.44-2.42,12.67-3.59c0,24.86,0,49.71,0,74.57c0,4.24-3.44,8.66-7.64,9.86    c-6.56,1.87-13.11,3.8-19.65,5.79c-4.18,1.27-7.6-1.13-7.6-5.37c0-24.86,0-49.71,0-74.57c4.2-1.31,8.4-2.59,12.61-3.85    c0,23.16,0,46.33,0,69.49c3.2-0.96,6.41-1.9,9.61-2.83C181.7,326.72,181.7,303.56,181.7,280.39z M83.27,313.83    c4.12-1.61,8.25-3.2,12.38-4.76c0,27.43,0,54.86,0,82.28c-4.13,1.56-8.26,3.15-12.38,4.76c0-11.58,0-23.16,0-34.75    c-2.87,1.12-5.73,2.25-8.58,3.4c0,11.58,0,23.16,0,34.75c-4.11,1.65-8.21,3.32-12.31,5.01c0-27.43,0-54.86,0-82.28    c4.1-1.7,8.2-3.37,12.31-5.01c0,11.58,0,23.16,0,34.75c2.86-1.15,5.72-2.28,8.58-3.4C83.27,337,83.27,325.41,83.27,313.83z     M256.89,261.35c11.74-2.55,23.51-4.92,35.31-7.09c0,4.26,0,8.53,0,12.79c-3.75,0.69-7.5,1.4-11.25,2.13c0,23.16,0,46.33,0,69.49    c-4.29,0.84-8.57,1.7-12.85,2.58c0-23.16,0-46.33,0-69.49c-3.74,0.77-7.48,1.57-11.21,2.38    C256.89,269.88,256.89,265.61,256.89,261.35z M389.47,240.6c0,27.43,0,54.86,0,82.28c-4.33,0.42-8.66,0.86-12.99,1.33    c0-4.79,0-9.58,0-14.37c-3.01-8.57-6.02-17.13-9.03-25.68c0,13.69,0,27.38,0,41.06c-4.33,0.5-8.65,1.03-12.97,1.59    c0-27.43,0-54.86,0-82.28c4.24-0.54,8.47-1.06,12.71-1.56c3.09,8.79,6.19,17.59,9.29,26.41c0-9.15,0-18.3,0-27.45    C380.81,241.46,385.14,241.02,389.47,240.6z M244.49,271.83c0,3.19,0,6.39,0,9.58c-4.26,0.98-8.53,1.98-12.78,3.01    c0-1.5,0-3,0-4.5c-3.24,0.78-6.47,1.58-9.7,2.39c0,5.66,0,11.32,0,16.98c6.14,2.89,12.28,5.83,18.43,8.82    c3,1.46,4.05,4.1,4.05,7.64c0,7.65,0,15.3,0,22.95c0,4.24-3.47,8.51-7.71,9.51c-6.62,1.57-13.23,3.19-19.83,4.88    c-4.22,1.08-7.67-1.48-7.67-5.73c0-3.19,0-6.38,0-9.58c4.24-1.11,8.48-2.2,12.73-3.27c0,1.5,0,3,0,4.5    c3.23-0.81,6.47-1.6,9.7-2.39c0-5.66,0-11.32,0-16.98c-6.15-2.94-12.28-5.84-18.41-8.68c-2.98-1.38-4.03-3.99-4.03-7.53    c0-7.65,0-15.3,0-22.95c0-4.24,3.45-8.62,7.67-9.7c6.6-1.69,13.21-3.31,19.83-4.88C241.02,264.91,244.48,267.59,244.49,271.83z     M689.35,251.14c-6.69-1.13-13.38-2.19-20.09-3.2c-4.29-0.64-7.8,2.33-7.8,6.57c0,22.29,0,44.57,0,66.86    c0,4.24,3.51,8.21,7.8,8.86c6.7,1.01,13.4,2.07,20.09,3.2c4.28,0.72,7.78-2.13,7.78-6.38c0-22.29,0-44.57,0-66.86    C697.12,255.95,693.62,251.86,689.35,251.14z M684.22,319.78c-3.27-0.54-6.55-1.06-9.83-1.57c0-18.9,0-37.8,0-56.7    c3.28,0.51,6.55,1.03,9.83,1.57C684.22,281.98,684.22,300.88,684.22,319.78z M857.64,292.83c11.49,3.79,22.93,7.77,34.32,11.94    c0,4.26,0,8.53,0,12.79c-3.62-1.32-7.25-2.63-10.88-3.92c0,23.16,0,46.33,0,69.49c-4.16-1.47-8.32-2.92-12.49-4.34    c0-23.16,0-46.33,0-69.49c-3.64-1.24-7.29-2.47-10.95-3.67C857.64,301.36,857.64,297.1,857.64,292.83z M924.5,334.52    c0-1.5,0-3,0-4.5c-3.13-1.25-6.26-2.49-9.39-3.71c0,5.66,0,11.32,0,16.98c5.95,6.75,11.89,13.55,17.81,20.4    c2.89,3.34,3.89,6.64,3.89,10.18c0,7.65,0,15.3,0,22.95c0,4.24-3.33,6.33-7.42,4.67c-6.38-2.59-12.78-5.12-19.19-7.59    c-4.11-1.58-7.47-6.32-7.47-10.56c0-3.19,0-6.39,0-9.58c4.14,1.56,8.26,3.14,12.38,4.75c0,1.5,0,3,0,4.5    c3.13,1.22,6.26,2.46,9.39,3.71c0-5.66,0-11.32,0-16.98c-5.93-6.8-11.88-13.56-17.85-20.26c-2.91-3.27-3.93-6.53-3.92-10.06    c0-7.65,0-15.3,0-22.95c0-4.24,3.37-6.45,7.47-4.87c6.42,2.47,12.81,5,19.19,7.59c4.09,1.66,7.41,6.51,7.42,10.76    c0,3.19,0,6.39,0,9.58C932.71,337.84,928.61,336.17,924.5,334.52z M798.11,274.96c-4.4,12.52-8.8,25.07-13.2,37.65    c4.41,14.85,8.81,29.73,13.2,44.63c-4.45-1.2-8.9-2.38-13.36-3.53c-3.51-11.83-7.02-23.64-10.54-35.44c0,10.92,0,21.85,0,32.77    c-4.25-1.05-8.51-2.08-12.77-3.08c0-27.43,0-54.86,0-82.28c4.26,1,8.52,2.03,12.77,3.08c0,10.92,0,21.85,0,32.77    c3.52-10.05,7.03-20.09,10.54-30.11C789.21,272.58,793.67,273.76,798.11,274.96z M747.04,270.11c0,3.27,0,6.55,0,9.82    c-4.27-0.95-8.54-1.87-12.82-2.77c0-1.58,0-3.16,0-4.74c-3.25-0.68-6.51-1.35-9.77-2c0,18.9,0,37.8,0,56.7    c3.26,0.65,6.51,1.32,9.77,2c0-1.42,0-2.84,0-4.26c4.28,0.9,8.55,1.82,12.82,2.77c0,3.11,0,6.22,0,9.33    c0,4.24-3.48,6.94-7.73,6.03c-6.64-1.43-13.3-2.79-19.96-4.1c-4.26-0.84-7.76-4.96-7.76-9.21c0-22.29,0-44.57,0-66.86    c0-4.24,3.49-7.06,7.76-6.22c6.66,1.31,13.32,2.67,19.96,4.1C743.56,261.62,747.04,265.86,747.04,270.11z M645.64,284.47    c0-10.7,0-21.41,0-32.11c0-4.24-3.52-8.17-7.82-8.69c-9.33-1.14-18.67-2.16-28.02-3.06v0c0,27.43,0,54.86,0,82.28    c4.33,0.42,8.66,0.86,12.99,1.33c0-11.58,0-23.16,0-34.75c1.75,0.19,3.5,0.38,5.24,0.58c1.9,11.8,3.8,23.6,5.7,35.4    c4.38,0.52,8.76,1.06,13.14,1.63c-1.94-12.07-3.87-24.13-5.81-36.19C643.76,290.02,645.64,287.58,645.64,284.47z M632.67,277.8    c-3.29-0.39-6.58-0.76-9.87-1.11c0-7.32,0-14.64,0-21.95c3.29,0.36,6.58,0.73,9.87,1.11C632.67,263.16,632.67,270.48,632.67,277.8    z M812.38,278.93c11.51,3.28,22.97,6.74,34.4,10.38c0,4.26,0,8.53,0,12.79c-7.23-2.31-14.48-4.54-21.75-6.7    c0,7.32,0,14.64,0,21.95c5.39,1.6,10.77,3.24,16.14,4.93c0,4.26,0,8.53,0,12.79c-5.37-1.68-10.75-3.32-16.14-4.93    c0,7.32,0,14.64,0,21.95c7.27,2.16,14.52,4.39,21.75,6.7c0,4.26,0,8.53,0,12.79c-11.42-3.64-22.89-7.1-34.4-10.38    C812.38,333.78,812.38,306.35,812.38,278.93z"></path>
	</g>
</g>
</svg>
